<svg width="1200" height="330" viewBox="0 0 1200 330" fill="none" xmlns="http://www.w3.org/2000/svg" role="img" aria-labelledby="title desc">
  <title id="title">Observable systems banner</title>
  <desc id="desc">A clean technical banner showing source code, traces, policy, and product signals flowing into reports.</desc>
  <defs>
    <linearGradient id="bg" x1="0" y1="0" x2="1200" y2="330" gradientUnits="userSpaceOnUse">
      <stop stop-color="#111827"/>
      <stop offset="0.55" stop-color="#0F172A"/>
      <stop offset="1" stop-color="#111827"/>
    </linearGradient>
    <linearGradient id="lineA" x1="184" y1="74" x2="1015" y2="254" gradientUnits="userSpaceOnUse">
      <stop stop-color="#38BDF8"/>
      <stop offset="0.5" stop-color="#34D399"/>
      <stop offset="1" stop-color="#F59E0B"/>
    </linearGradient>
    <filter id="softShadow" x="-20%" y="-20%" width="140%" height="140%">
      <feDropShadow dx="0" dy="14" stdDeviation="18" flood-color="#020617" flood-opacity="0.32"/>
    </filter>
  </defs>
  <rect width="1200" height="330" rx="26" fill="url(#bg)"/>
  <path d="M80 278H1120" stroke="#334155" stroke-width="1"/>
  <path d="M80 52H1120" stroke="#1F2937" stroke-width="1"/>
  <path d="M80 112H1120" stroke="#1F2937" stroke-width="1" stroke-dasharray="7 12"/>
  <path d="M80 172H1120" stroke="#1F2937" stroke-width="1" stroke-dasharray="7 12"/>
  <path d="M80 232H1120" stroke="#1F2937" stroke-width="1" stroke-dasharray="7 12"/>

  <g filter="url(#softShadow)">
    <rect x="78" y="70" width="244" height="178" rx="18" fill="#0B1220" stroke="#334155"/>
    <rect x="96" y="92" width="72" height="8" rx="4" fill="#38BDF8"/>
    <rect x="96" y="121" width="178" height="10" rx="5" fill="#475569"/>
    <rect x="96" y="148" width="130" height="10" rx="5" fill="#334155"/>
    <rect x="96" y="175" width="164" height="10" rx="5" fill="#334155"/>
    <rect x="96" y="202" width="98" height="10" rx="5" fill="#475569"/>
    <text x="96" y="234" fill="#CBD5E1" font-family="ui-monospace, SFMono-Regular, Consolas, monospace" font-size="15">source + runtime</text>

    <rect x="478" y="52" width="244" height="214" rx="18" fill="#0B1220" stroke="#334155"/>
    <circle cx="536" cy="121" r="18" fill="#38BDF8" fill-opacity="0.18" stroke="#38BDF8"/>
    <circle cx="611" cy="91" r="18" fill="#34D399" fill-opacity="0.18" stroke="#34D399"/>
    <circle cx="656" cy="154" r="18" fill="#F59E0B" fill-opacity="0.18" stroke="#F59E0B"/>
    <circle cx="579" cy="188" r="18" fill="#A78BFA" fill-opacity="0.18" stroke="#A78BFA"/>
    <path d="M553 116L594 98M623 106L644 139M642 161L596 182M566 179L546 137M553 126L639 151" stroke="url(#lineA)" stroke-width="3" stroke-linecap="round"/>
    <text x="516" y="232" fill="#CBD5E1" font-family="ui-monospace, SFMono-Regular, Consolas, monospace" font-size="15">graphs + traces</text>

    <rect x="878" y="70" width="244" height="178" rx="18" fill="#0B1220" stroke="#334155"/>
    <rect x="898" y="96" width="80" height="26" rx="13" fill="#34D399" fill-opacity="0.18" stroke="#34D399"/>
    <rect x="898" y="136" width="142" height="10" rx="5" fill="#475569"/>
    <rect x="898" y="162" width="180" height="10" rx="5" fill="#334155"/>
    <rect x="898" y="188" width="118" height="10" rx="5" fill="#334155"/>
    <text x="918" y="115" fill="#A7F3D0" font-family="ui-monospace, SFMono-Regular, Consolas, monospace" font-size="13">PASS</text>
    <text x="898" y="234" fill="#CBD5E1" font-family="ui-monospace, SFMono-Regular, Consolas, monospace" font-size="15">reports + gates</text>
  </g>

  <path d="M322 157C378 126 421 112 478 111" stroke="url(#lineA)" stroke-width="4" stroke-linecap="round"/>
  <path d="M722 159C779 192 820 205 878 205" stroke="url(#lineA)" stroke-width="4" stroke-linecap="round"/>
  <circle cx="362" cy="137" r="6" fill="#38BDF8"/>
  <circle cx="802" cy="196" r="6" fill="#F59E0B"/>

  <text x="80" y="304" fill="#94A3B8" font-family="ui-monospace, SFMono-Regular, Consolas, monospace" font-size="16">static analysis</text>
  <text x="285" y="304" fill="#94A3B8" font-family="ui-monospace, SFMono-Regular, Consolas, monospace" font-size="16">runtime tracing</text>
  <text x="510" y="304" fill="#94A3B8" font-family="ui-monospace, SFMono-Regular, Consolas, monospace" font-size="16">durable workflows</text>
  <text x="765" y="304" fill="#94A3B8" font-family="ui-monospace, SFMono-Regular, Consolas, monospace" font-size="16">product feedback loops</text>
</svg>
